#N canvas 277 284 1150 675 12;
#X obj 203 90 inlet~;
#X obj 283 494 *~;
#X obj 283 519 outlet~;
#X obj 397 23 loadbang;
#X msg 397 83 0;
#X obj 530 17 inlet;
#X obj 326 421 vline~;
#X obj 516 389 pack f f f;
#X obj 515 263 unpack f f f;
#X obj 513 355 +;
#X obj 480 315 t f f;
#X obj 721 280 pdcontrol;
#X msg 719 245 args 0;
#X obj 721 305 list split 3;
#X obj 706 363 list;
#X obj 397 48 t b b;
#X obj 538 105 t l l;
#X obj 525 167 list prepend;
#X obj 628 132 list length;
#X text 748 72 len 3: asr;
#X text 760 101 len 2: vol ramp;
#X obj 525 211 route 2 3;
#X obj 518 58 route bang list;
#X msg 505 427 1 \$1 \, 0 \$2 \$3;
#X connect 0 0 1 0;
#X connect 1 0 2 0;
#X connect 3 0 15 0;
#X connect 4 0 6 0;
#X connect 5 0 22 0;
#X connect 6 0 1 1;
#X connect 7 0 23 0;
#X connect 8 0 10 0;
#X connect 8 1 9 1;
#X connect 8 2 7 2;
#X connect 9 0 7 1;
#X connect 10 0 7 0;
#X connect 10 1 9 0;
#X connect 11 0 13 0;
#X connect 12 0 11 0;
#X connect 13 0 14 1;
#X connect 14 0 8 0;
#X connect 15 0 4 0;
#X connect 15 1 12 0;
#X connect 16 0 17 0;
#X connect 16 1 18 0;
#X connect 17 0 21 0;
#X connect 18 0 17 1;
#X connect 21 0 6 0;
#X connect 21 1 8 0;
#X connect 22 0 14 0;
#X connect 22 1 16 0;
#X connect 23 0 6 0;
