#N canvas 876 257 1134 713 12;
#X msg 120 145 1.98485 -0.988937 0.994469 -1.98485 0.994469;
#X text 121 115 notch: 450 25;
#X msg 343 216 1.88607 -0.913972 0.956986 -1.88607 0.956986;
#X text 353 187 notch: 1200 75;
#X msg 651 279 1.58087 -0.737154 0.868577 -1.58087 0.868577;
#X text 655 255 notch: 3000 100;
#X obj 118 292 biquad~;
#X text 301 100 m;
#X text 504 173 n;
#X text 839 251 ng;
#X obj 118 317 outlet~;
#X obj 453 31 inlet;
#X obj 453 56 sel 0 1 2;
#X obj 50 28 inlet~;
#X connect 0 0 6 0;
#X connect 2 0 6 0;
#X connect 4 0 6 0;
#X connect 6 0 10 0;
#X connect 11 0 12 0;
#X connect 12 0 0 0;
#X connect 12 1 2 0;
#X connect 12 2 4 0;
#X connect 13 0 6 0;
