#N canvas 197 147 950 729 12;
#X obj 31 254 phasor~ 100;
#X obj 100 577 dkezdac~ 1 2;
#X obj 77 486 pdkvabs/dkcospan~ 0;
#X obj 37 150 pack f 5;
#X obj 43 184 line~;
#X text 456 470 ramptime;
#X obj 140 15 loadbang;
#X text 610 673 135% - children;
#X obj 45 287 lop~ 2000;
#X obj 502 663 s vfmult;
#X msg 500 627 1;
#X msg 561 626 1.16;
#X obj 99 86 * 1;
#X obj 149 42 r vfmult;
#X obj 448 425 symbol;
#X symbolatom 435 451 10 0 0 0 - - -;
#X msg 99 61 150;
#N canvas 204 119 1141 977 vowelfilt 0;
#X obj 239 619 *~ 0.33;
#X obj 49 574 *~ 0.33;
#X obj 341 600 *~ 0.33;
#X obj 89 441 line~;
#X obj 134 612 line~;
#X obj 59 739 *~;
#X obj 280 533 line~;
#X obj 226 716 *~;
#X obj 285 701 line~;
#X obj 285 360 line~;
#X obj 455 383 line~;
#X obj 435 754 *~;
#X obj 111 339 pack f 5;
#X obj 229 409 pack f 5;
#X obj 301 657 pack f 5;
#X obj 304 325 pack f 5;
#X obj 586 164 f;
#X obj 494 345 pack 1 5;
#X obj 218 182 unpack f f f;
#X msg 468 171 1;
#X obj 159 581 pack f 5;
#X obj 156 281 * 1;
#X obj 324 270 * 1;
#X obj 232 329 * 1;
#X obj 405 218 r vfmult;
#X obj 297 64 t l b b;
#X obj 49 548 vcf~ 10;
#X obj 232 595 vcf~ 10;
#X obj 345 552 vcf~ 10;
#X obj 265 6 inlet;
#X obj 559 87 inlet;
#X obj 83 16 inlet~;
#X obj 58 790 +~;
#X obj 58 815 +~;
#X obj 58 840 outlet~;
#X connect 0 0 7 0;
#X connect 1 0 5 0;
#X connect 2 0 11 0;
#X connect 3 0 26 1;
#X connect 4 0 5 1;
#X connect 5 0 32 0;
#X connect 6 0 27 1;
#X connect 7 0 32 1;
#X connect 8 0 7 1;
#X connect 9 0 28 1;
#X connect 10 0 11 1;
#X connect 11 0 33 1;
#X connect 12 0 3 0;
#X connect 13 0 6 0;
#X connect 14 0 8 0;
#X connect 15 0 9 0;
#X connect 16 0 12 1;
#X connect 16 0 13 1;
#X connect 16 0 14 1;
#X connect 16 0 15 1;
#X connect 16 0 17 1;
#X connect 16 0 20 1;
#X connect 17 0 10 0;
#X connect 18 0 21 0;
#X connect 18 1 23 0;
#X connect 18 2 22 0;
#X connect 19 0 14 0;
#X connect 19 0 17 0;
#X connect 19 0 20 0;
#X connect 20 0 4 0;
#X connect 21 0 12 0;
#X connect 22 0 15 0;
#X connect 23 0 13 0;
#X connect 24 0 21 1;
#X connect 24 0 23 1;
#X connect 24 0 22 1;
#X connect 25 0 18 0;
#X connect 25 1 19 0;
#X connect 26 0 1 0;
#X connect 27 0 0 0;
#X connect 28 0 2 0;
#X connect 29 0 25 0;
#X connect 30 0 16 0;
#X connect 31 0 26 0;
#X connect 31 0 27 0;
#X connect 31 0 28 0;
#X connect 32 0 33 0;
#X connect 33 0 34 0;
#X restore 61 326 pd vowelfilt;
#X text 643 636 116% - women;
#X obj 63 221 *~;
#X obj 445 271 loadbang;
#X msg 443 307 1;
#X obj 410 557 pack f 5;
#X obj 408 587 line~;
#X obj 501 319 hsl 128 15 0.75 1.25 0 0 empty empty empty -2 -8 0 10
-262144 -1 -1 4350 1;
#X obj 504 554 dkrrand 0.9 1.1;
#X obj 445 395 r formantsym;
#X obj 166 248 r formantlist;
#X obj 560 505 r randfund;
#N canvas 693 489 890 537 fric 0;
#X obj 574 211 fric/f-fricative;
#X obj 161 212 fric/ch-fricative;
#X obj 729 215 fric/h-fricative;
#X obj 312 214 fric/s-fricative;
#X obj 19 210 fric/sh-fricative;
#X obj 443 212 fric/x-fricative;
#X obj 175 329 outlet~;
#X obj 145 117 route 0 1 2 3 4 5;
#X obj 19 235 abs/asrtrig~;
#X obj 161 237 abs/asrtrig~;
#X obj 312 239 abs/asrtrig~;
#X obj 443 237 abs/asrtrig~;
#X obj 574 236 abs/asrtrig~;
#X obj 729 240 abs/asrtrig~;
#X obj 145 92 list prepend 0;
#X msg 141 53 5 100 5;
#X obj 122 15 r uftrig;
#X obj 274 14 r uflistnum;
#X obj 291 60 i 0;
#X connect 0 0 12 0;
#X connect 1 0 9 0;
#X connect 2 0 13 0;
#X connect 3 0 10 0;
#X connect 4 0 8 0;
#X connect 5 0 11 0;
#X connect 7 0 8 1;
#X connect 7 1 9 1;
#X connect 7 3 10 1;
#X connect 7 4 11 1;
#X connect 7 5 12 0;
#X connect 7 6 13 0;
#X connect 8 0 6 0;
#X connect 9 0 6 0;
#X connect 10 0 6 0;
#X connect 11 0 6 0;
#X connect 12 0 6 0;
#X connect 13 0 6 0;
#X connect 14 0 7 0;
#X connect 15 0 14 0;
#X connect 16 0 15 0;
#X connect 17 0 18 0;
#X connect 18 0 14 1;
#X restore 6 382 pd fric;
#N canvas 209 153 990 597 vowelformant 0;
#X obj 259 342 list split 1;
#X msg 368 470 read vowellist.csv;
#X obj 322 511 text define -k \$0-vowels;
#A set i 277 2208 3079 \; y 277 1937 2232 \; i- 277 1520 2310 \; uu
277 1218 2500 \; v1 227 845 2460 \; u 277 553 2420 \; I 344 2170 2660
\; Y 344 1770 2230 \; it 344 1507 2390 \; uut 344 1228 2500 \; u2 344
635 2413 \; e 414 2065 2570 \; o- 414 1608 2250 \; schwa 414 1516 2500
\; rh 414 1238 2500 \; o- 414 721 2406 \; e2 487 1928 2580 \; schwa2
487 1492 2505 \; rh2 487 1248 2500 \; v2 487 845 2460 \; o2 487 815
2393 \; eps 565 1819 2528 \; oe 565 1520 2500 \; eps2 565 1462 2500
\; wedge 565 1258 2500 \; openo 565 915 2373 \; ae 648 1712 2490 \;
uda 648 1405 2500 \; uda2t 648 1023 2500 \; udat 735 1498 2537 \; a2
735 1278 2500 \; uda2t 735 1141 2280 \; a 800 1228 2500 \;;
#X obj 241 314 text get \$0-vowels;
#X msg 319 260 300;
#X obj 234 399 s formantlist;
#X obj 259 367 s formantsym;
#X obj 431 276 s randfund;
#X obj 319 285 s formant_ttime;
#X obj 267 144 r voweltrig;
#X obj 137 287 s vowelasr;
#X msg 257 208 5 300 100;
#X obj 422 128 r vowellistnum;
#X obj 273 279 i 0;
#X obj 257 183 t b b b b b, f 37;
#X msg 623 204 0;
#X obj 624 236 s nasalnotch;
#X connect 0 0 6 0;
#X connect 0 1 5 0;
#X connect 1 0 2 0;
#X connect 3 0 0 0;
#X connect 4 0 8 0;
#X connect 9 0 14 0;
#X connect 11 0 10 0;
#X connect 12 0 13 1;
#X connect 13 0 3 0;
#X connect 14 0 11 0;
#X connect 14 1 13 0;
#X connect 14 2 4 0;
#X connect 14 3 7 0;
#X connect 14 4 15 0;
#X connect 15 0 16 0;
#X restore 781 69 pd vowelformant;
#N canvas 138 171 828 592 glideliquidformant 0;
#X obj 292 267 text get \$0-glideliquid;
#X obj 387 450 text define -k \$0-glideliquid;
#A set w 290 610 2150 \; j 260 2070 3020 \; r2 310 1060 1380 \; rschwa
414 1516 1800 \; rvowel 565 1819 1800 \; arvowel 735 1278 1800 \; crvowel
565 915 1800 \; l 310 1050 2880 \;;
#X msg 437 409 read glideliquid.csv;
#X obj 307 302 list split 1;
#X obj 317 377 s formantsym;
#X obj 406 342 s formantlist;
#X obj 585 357 s formant_ttime;
#X obj 418 224 s randfund;
#X msg 543 253 100;
#X msg 253 172 5 100 100;
#X obj 253 197 s glasr;
#X obj 357 180 r gllistnum;
#X obj 315 220 i 0;
#X obj 202 96 r gltrig;
#X obj 286 131 t b b b b b, f 52;
#X msg 623 204 0;
#X obj 624 236 s nasalnotch;
#X connect 0 0 3 0;
#X connect 2 0 1 0;
#X connect 3 0 4 0;
#X connect 3 1 5 0;
#X connect 8 0 6 0;
#X connect 9 0 10 0;
#X connect 11 0 12 1;
#X connect 12 0 0 0;
#X connect 13 0 14 0;
#X connect 14 0 9 0;
#X connect 14 1 12 0;
#X connect 14 2 7 0;
#X connect 14 3 8 0;
#X connect 14 4 15 0;
#X connect 15 0 16 0;
#X restore 778 36 pd glideliquidformant;
#X floatatom 452 51 5 0 0 0 - - -;
#X obj 277 32 bng 15 250 50 0 empty empty empty 17 7 0 10 -262144 -1
-1;
#X obj 79 439 abs/asrtrig~;
#X obj 160 403 r vowelasr;
#X obj 268 392 r glasr;
#X obj 272 184 hradio 15 1 0 4 empty empty empty 0 -8 0 10 -262144
-1 -1 3;
#X obj 454 78 s vowellistnum;
#X floatatom 447 105 5 0 0 0 - - -;
#X obj 447 129 s gllistnum;
#X floatatom 447 215 5 0 0 0 - - -;
#X obj 447 239 s uflistnum;
#N canvas 234 483 738 487 formanttrigsel 0;
#X obj 298 97 f 0;
#X obj 286 50 inlet;
#X obj 266 256 s voweltrig;
#X obj 280 220 s gltrig;
#X obj 382 157 s uftrig;
#X obj 354 58 inlet;
#X obj 309 116 sel 0 1 2 3 4;
#X obj 340 200 s nasaltrig;
#X connect 0 0 6 0;
#X connect 1 0 0 0;
#X connect 5 0 0 1;
#X connect 6 0 2 0;
#X connect 6 1 3 0;
#X connect 6 2 7 0;
#X connect 6 3 4 0;
#X restore 164 220 pd formanttrigsel;
#X obj 316 12 key;
#X obj 563 34 hsl 128 15 0 33 0 0 empty empty empty -2 -8 0 10 -262144
-1 -1 7000 1;
#X obj 595 123 hsl 128 15 0 6 0 0 empty empty empty -2 -8 0 10 -262144
-1 -1 3100 1;
#X obj 591 225 hsl 128 15 0 6 0 0 empty empty empty -2 -8 0 10 -262144
-1 -1 10600 1;
#X obj 438 350 s sawfund;
#X obj 387 504 r sawfund;
#N canvas 322 247 900 561 nasalformant 0;
#X obj 272 280 list split 1;
#X msg 332 198 300;
#X obj 264 367 s formantlist;
#X obj 183 326 s formantsym;
#X obj 444 214 s randfund;
#X obj 332 223 s formant_ttime;
#X msg 270 146 5 300 100;
#X obj 286 217 i 0;
#X obj 280 82 r nasaltrig;
#X obj 435 66 r nasallistnum;
#X obj 254 252 text get \$0-nasal;
#X obj 150 225 s nasalasr;
#X obj 335 449 text define -k \$0-nasal;
#A set m 450 1270 2130 0 \; n 450 1340 2740 1 \; ng 450 2208 3079 2
\;;
#X obj 593 292 s nasalnotch;
#X msg 592 260 1;
#X obj 270 121 t b b b b b b, f 39;
#X msg 552 144 270;
#X obj 654 209 s sawfund;
#X obj 275 329 list split 3;
#X msg 381 408 read nasal.csv;
#X obj 652 89 r vfmult;
#X obj 585 178 /;
#X obj 650 115 * 150;
#X connect 0 0 3 0;
#X connect 0 1 18 0;
#X connect 1 0 5 0;
#X connect 6 0 11 0;
#X connect 7 0 10 0;
#X connect 8 0 15 0;
#X connect 9 0 7 1;
#X connect 10 0 0 0;
#X connect 14 0 13 0;
#X connect 15 0 6 0;
#X connect 15 1 7 0;
#X connect 15 2 1 0;
#X connect 15 3 4 0;
#X connect 15 4 14 0;
#X connect 15 5 16 0;
#X connect 16 0 21 0;
#X connect 18 0 2 0;
#X connect 19 0 12 0;
#X connect 20 0 22 0;
#X connect 22 0 21 1;
#X restore 784 102 pd nasalformant;
#X floatatom 447 161 5 0 0 0 - - -;
#X obj 591 171 hsl 128 15 0 2 0 0 empty empty empty -2 -8 0 10 -262144
-1 -1 12700 1;
#X obj 447 185 s nasallistnum;
#X text 338 158 v/gl/nasal/uf;
#X obj 267 82 sel 32;
#X obj 298 54 moses 49;
#N canvas 553 287 801 442 nasalrouter 0;
#X obj 384 28 r nasalnotch;
#X obj 384 63 t f f;
#X obj 195 165 == 0;
#X msg 195 190 \$1 5;
#X obj 144 250 line~;
#X obj 73 44 inlet~;
#X obj 85 304 *~;
#X obj 85 359 outlet~;
#X obj 245 291 abs/nasal-bq~;
#X obj 382 120 == 1;
#X msg 380 155 \$1 5;
#X obj 382 194 line~;
#X obj 269 245 *~;
#X obj 381 227 r nasallistnum;
#X connect 0 0 1 0;
#X connect 1 0 2 0;
#X connect 1 1 9 0;
#X connect 2 0 3 0;
#X connect 3 0 4 0;
#X connect 4 0 6 1;
#X connect 5 0 6 0;
#X connect 5 0 12 0;
#X connect 6 0 7 0;
#X connect 8 0 7 0;
#X connect 9 0 10 0;
#X connect 10 0 11 0;
#X connect 11 0 12 1;
#X connect 12 0 8 0;
#X connect 13 0 8 1;
#X restore 103 371 pd nasalrouter;
#X obj 237 365 r nasalasr;
#X obj 306 136 - 49;
#X obj 522 589 loadbang;
#X connect 0 0 8 0;
#X connect 2 0 1 0;
#X connect 2 1 1 1;
#X connect 3 0 4 0;
#X connect 4 0 19 0;
#X connect 6 0 16 0;
#X connect 8 0 17 0;
#X connect 10 0 9 0;
#X connect 11 0 9 0;
#X connect 12 0 3 0;
#X connect 13 0 12 1;
#X connect 14 0 15 0;
#X connect 16 0 12 0;
#X connect 17 0 57 0;
#X connect 19 0 0 0;
#X connect 20 0 21 0;
#X connect 21 0 24 0;
#X connect 22 0 23 0;
#X connect 23 0 19 1;
#X connect 24 0 48 0;
#X connect 26 0 14 0;
#X connect 27 0 17 1;
#X connect 28 0 25 0;
#X connect 29 0 2 0;
#X connect 32 0 38 0;
#X connect 33 0 43 0;
#X connect 34 0 2 0;
#X connect 35 0 34 1;
#X connect 36 0 34 1;
#X connect 37 0 43 1;
#X connect 39 0 40 0;
#X connect 41 0 42 0;
#X connect 44 0 56 0;
#X connect 45 0 32 0;
#X connect 46 0 39 0;
#X connect 47 0 41 0;
#X connect 49 0 22 0;
#X connect 51 0 53 0;
#X connect 52 0 51 0;
#X connect 55 0 43 0;
#X connect 56 0 55 0;
#X connect 56 1 59 0;
#X connect 57 0 34 0;
#X connect 58 0 34 1;
#X connect 59 0 37 0;
#X connect 60 0 10 0;
