#N canvas 401 104 1028 975 12;
#X msg 213 161 0.0120543 0.987439 0.00628042 -0.0120543 0.00628042
;
#X text 226 136 notch: 2000 2000;
#X obj 144 195 biquad~;
#X obj 143 258 bp~ 4000 10;
#X msg 334 376 0.551487 0.221464 0.389268 -0.551487 0.389268;
#X text 343 343 notch: 5500 400;
#X obj 411 598 biquad~;
#X obj 315 74 loadbang;
#X obj 562 479 bp~ 7000 10;
#X obj 562 529 lop~ 15000;
#X obj 562 504 lop~ 15000;
#X obj 190 78 noise~;
#X obj 411 623 +~;
#X obj 411 648 outlet~;
#X connect 0 0 2 0;
#X connect 2 0 3 0;
#X connect 2 0 8 0;
#X connect 3 0 6 0;
#X connect 4 0 6 0;
#X connect 6 0 12 0;
#X connect 7 0 0 0;
#X connect 7 0 4 0;
#X connect 8 0 10 0;
#X connect 9 0 12 1;
#X connect 10 0 9 0;
#X connect 11 0 2 0;
#X connect 12 0 13 0;
