#N canvas 48 270 720 879 12;
#X obj 348 250 biquad~;
#X obj 361 201 noise~;
#X msg 137 169 0.217146 0.761387 0.119306 -0.217146 0.119306;
#X obj 348 275 biquad~;
#X obj 492 274 bp~ 4200 10;
#X obj 369 332 +~;
#X msg 231 103 0.522192 0.240964 0.379518 -0.522192 0.379518;
#X obj 457 321 biquad~;
#X obj 369 357 lop~ 11000;
#X obj 376 388 lop~ 11000;
#X obj 126 32 loadbang;
#X text 91 123 notch: 3000 1000;
#X text 295 64 notch: 5700 400;
#X obj 376 413 outlet~;
#X connect 0 0 3 0;
#X connect 1 0 0 0;
#X connect 1 0 4 0;
#X connect 2 0 0 0;
#X connect 2 0 3 0;
#X connect 3 0 5 0;
#X connect 4 0 7 0;
#X connect 5 0 8 0;
#X connect 6 0 7 0;
#X connect 7 0 5 1;
#X connect 8 0 9 0;
#X connect 9 0 13 0;
#X connect 10 0 2 0;
#X connect 10 0 6 0;
