#N canvas 154 177 895 906 12;
#X msg 170 390 0.589375 0.279607 0.360196 -0.589375 0.360196;
#X obj 170 415 biquad~;
#X text 260 86 notch: 4300 500;
#X msg 373 240 1.42272 -0.437287 0.718643 -1.42272 0.718643;
#X text 386 188 notch: 1000 500;
#X obj 364 282 biquad~;
#X obj 477 40 loadbang;
#X obj 143 346 bp~ 3000 10;
#X obj 520 315 bp~ 6500;
#X obj 520 340 lop~ 6000;
#X obj 520 365 lop~ 6000;
#X obj 273 462 +~;
#X obj 359 59 noise~;
#X obj 273 487 outlet~;
#X connect 0 0 1 0;
#X connect 1 0 11 0;
#X connect 3 0 5 0;
#X connect 5 0 7 0;
#X connect 5 0 8 0;
#X connect 6 0 0 0;
#X connect 6 0 3 0;
#X connect 7 0 1 0;
#X connect 8 0 9 0;
#X connect 9 0 10 0;
#X connect 10 0 11 1;
#X connect 11 0 13 0;
#X connect 12 0 5 0;
