#N canvas 347 151 711 869 12;
#X msg 195 235 1.98932 -0.990124 0.995062 -1.98932 0.995062;
#X obj 205 183 loadbang;
#X text 306 193 notch: 200 50;
#X obj 195 260 biquad~;
#X obj 220 365 bp~ 1500 10;
#X obj 220 390 lop~ 3000;
#X obj 220 415 lop~ 3000;
#X obj 151 83 noise~;
#X obj 220 440 outlet~;
#X connect 0 0 3 0;
#X connect 1 0 0 0;
#X connect 3 0 4 0;
#X connect 4 0 5 0;
#X connect 5 0 6 0;
#X connect 6 0 8 0;
#X connect 7 0 3 0;
